<svg width="1771" height="2009" viewBox="0 0 1771 2009" fill="none" xmlns="http://www.w3.org/2000/svg">
<path d="M161.169 1808.1L0 0.376099H1771L1609.65 1807.82L884.413 2008.88L161.169 1808.1Z" fill="#E44D26"/>
<path d="M885.5 1855.2L1471.52 1692.72L1609.41 148.19H885.5V1855.2Z" fill="#F16529"/>
<path d="M885.5 818.651H592.126L571.86 591.616H885.5V369.903H329.551L334.864 429.385L389.354 1040.36H885.5V818.651ZM885.5 1394.45L884.526 1394.72L637.608 1328.04L621.822 1151.22H399.264L430.329 1499.34L884.486 1625.41L885.5 1625.13V1394.45Z" fill="#EBEBEB"/>
<path d="M884.735 818.651V1040.36H1157.75L1132.01 1327.9L884.735 1394.64V1625.3L1339.25 1499.34L1342.58 1461.87L1394.69 878.188L1400.1 818.651H1340.36H884.735ZM884.735 369.903V591.616H1420.27L1424.71 541.779L1434.82 429.385L1440.12 369.903H884.735Z" fill="white"/>
</svg>
